<svg width="21" height="21" viewBox="0 0 21 21" fill="none" xmlns="http://www.w3.org/2000/svg">
    <path
        d="M12.77 16.88C11.96 17.09 11.12 17.19 10.25 17.19C6.98 17.19 4.05 15.66 2.05 13.24C0.65 11.55 0.65 8.94 2.05 7.26C2.21 7.06 2.39 6.87 2.57 6.68"
        stroke-width="1.5" stroke-linecap="round" stroke-linejoin="round" />
    <path
        d="M18.45 13.24C17.65 14.2 16.7 15.02 15.65 15.66L4.84003 4.84C6.43003 3.86 8.27003 3.31 10.25 3.31C13.52 3.31 16.45 4.84 18.45 7.26C19.85 8.94 19.85 11.56 18.45 13.24Z"
        stroke-width="1.5" stroke-linecap="round" stroke-linejoin="round" />
    <path
        d="M13.33 10.25C13.33 11.1 12.98 11.87 12.43 12.43L8.07001 8.07C8.62001 7.51 9.40001 7.17 10.25 7.17C11.96 7.17 13.33 8.54 13.33 10.25Z"
         stroke-width="1.5" stroke-linecap="round" stroke-linejoin="round" />
    <path d="M1 1L4.84 4.84L8.07 8.07L12.43 12.43L15.66 15.66L19.5 19.5" 
        stroke-width="1.5" stroke-linecap="round" stroke-linejoin="round" />
</svg>